<svg xmlns="http://www.w3.org/2000/svg" width="1280" height="900" viewBox="0 0 1280 900">
<rect width="100%" height="100%" fill="#f8fafc"/>
<text x="30" y="36" font-size="24" font-family="monospace" fill="#0f172a">GPU Usage Report</text>
<text x="30" y="58" font-size="14" font-family="monospace" fill="#334155">Generated 2026-03-08T23:04:08</text>
<circle cx="30" cy="878" r="5" fill="#0b7285"/>
<text x="40" y="883" font-size="13" font-family="monospace" fill="#0f172a">GPU 0</text>
<rect x="70" y="70" width="1180" height="220" fill="#ffffff" stroke="#cbd5e1"/>
<text x="70" y="60" font-size="16" font-family="monospace" fill="#0f172a">GPU Util (%)</text>
<line x1="70" y1="290.00" x2="1250" y2="290.00" stroke="#e2e8f0"/>
<text x="62" y="294.00" text-anchor="end" font-size="11" font-family="monospace" fill="#475569">0.0</text>
<line x1="70" y1="246.00" x2="1250" y2="246.00" stroke="#e2e8f0"/>
<text x="62" y="250.00" text-anchor="end" font-size="11" font-family="monospace" fill="#475569">20.0</text>
<line x1="70" y1="202.00" x2="1250" y2="202.00" stroke="#e2e8f0"/>
<text x="62" y="206.00" text-anchor="end" font-size="11" font-family="monospace" fill="#475569">40.0</text>
<line x1="70" y1="158.00" x2="1250" y2="158.00" stroke="#e2e8f0"/>
<text x="62" y="162.00" text-anchor="end" font-size="11" font-family="monospace" fill="#475569">60.0</text>
<line x1="70" y1="114.00" x2="1250" y2="114.00" stroke="#e2e8f0"/>
<text x="62" y="118.00" text-anchor="end" font-size="11" font-family="monospace" fill="#475569">80.0</text>
<line x1="70" y1="70.00" x2="1250" y2="70.00" stroke="#e2e8f0"/>
<text x="62" y="74.00" text-anchor="end" font-size="11" font-family="monospace" fill="#475569">100.0</text>
<path d="M 70.00 137.32 L 1250.00 144.43" fill="none" stroke="#0b7285" stroke-width="2.2"/>
<text x="70" y="308" font-size="11" font-family="monospace" fill="#475569">23:04:06</text>
<text x="1250" y="308" text-anchor="end" font-size="11" font-family="monospace" fill="#475569">23:04:07</text>
<rect x="70" y="330" width="1180" height="220" fill="#ffffff" stroke="#cbd5e1"/>
<text x="70" y="320" font-size="16" font-family="monospace" fill="#0f172a">Temp (C)</text>
<line x1="70" y1="550.00" x2="1250" y2="550.00" stroke="#e2e8f0"/>
<text x="62" y="554.00" text-anchor="end" font-size="11" font-family="monospace" fill="#475569">69.0</text>
<line x1="70" y1="506.00" x2="1250" y2="506.00" stroke="#e2e8f0"/>
<text x="62" y="510.00" text-anchor="end" font-size="11" font-family="monospace" fill="#475569">69.7</text>
<line x1="70" y1="462.00" x2="1250" y2="462.00" stroke="#e2e8f0"/>
<text x="62" y="466.00" text-anchor="end" font-size="11" font-family="monospace" fill="#475569">70.4</text>
<line x1="70" y1="418.00" x2="1250" y2="418.00" stroke="#e2e8f0"/>
<text x="62" y="422.00" text-anchor="end" font-size="11" font-family="monospace" fill="#475569">71.1</text>
<line x1="70" y1="374.00" x2="1250" y2="374.00" stroke="#e2e8f0"/>
<text x="62" y="378.00" text-anchor="end" font-size="11" font-family="monospace" fill="#475569">71.8</text>
<line x1="70" y1="330.00" x2="1250" y2="330.00" stroke="#e2e8f0"/>
<text x="62" y="334.00" text-anchor="end" font-size="11" font-family="monospace" fill="#475569">72.6</text>
<path d="M 70.00 392.08 L 1250.00 487.92" fill="none" stroke="#0b7285" stroke-width="2.2"/>
<text x="70" y="568" font-size="11" font-family="monospace" fill="#475569">23:04:06</text>
<text x="1250" y="568" text-anchor="end" font-size="11" font-family="monospace" fill="#475569">23:04:07</text>
<rect x="70" y="590" width="1180" height="220" fill="#ffffff" stroke="#cbd5e1"/>
<text x="70" y="580" font-size="16" font-family="monospace" fill="#0f172a">Power (W)</text>
<line x1="70" y1="810.00" x2="1250" y2="810.00" stroke="#e2e8f0"/>
<text x="62" y="814.00" text-anchor="end" font-size="11" font-family="monospace" fill="#475569">217.6</text>
<line x1="70" y1="766.00" x2="1250" y2="766.00" stroke="#e2e8f0"/>
<text x="62" y="770.00" text-anchor="end" font-size="11" font-family="monospace" fill="#475569">219.2</text>
<line x1="70" y1="722.00" x2="1250" y2="722.00" stroke="#e2e8f0"/>
<text x="62" y="726.00" text-anchor="end" font-size="11" font-family="monospace" fill="#475569">220.8</text>
<line x1="70" y1="678.00" x2="1250" y2="678.00" stroke="#e2e8f0"/>
<text x="62" y="682.00" text-anchor="end" font-size="11" font-family="monospace" fill="#475569">222.5</text>
<line x1="70" y1="634.00" x2="1250" y2="634.00" stroke="#e2e8f0"/>
<text x="62" y="638.00" text-anchor="end" font-size="11" font-family="monospace" fill="#475569">224.1</text>
<line x1="70" y1="590.00" x2="1250" y2="590.00" stroke="#e2e8f0"/>
<text x="62" y="594.00" text-anchor="end" font-size="11" font-family="monospace" fill="#475569">225.7</text>
<path d="M 70.00 617.23 L 1250.00 782.77" fill="none" stroke="#0b7285" stroke-width="2.2"/>
<text x="70" y="828" font-size="11" font-family="monospace" fill="#475569">23:04:06</text>
<text x="1250" y="828" text-anchor="end" font-size="11" font-family="monospace" fill="#475569">23:04:07</text>
</svg>