<svg xmlns="http://www.w3.org/2000/svg" width="1280" height="900" viewBox="0 0 1280 900">
<rect width="100%" height="100%" fill="#f8fafc"/>
<text x="30" y="36" font-size="24" font-family="monospace" fill="#0f172a">GPU Usage Report</text>
<text x="30" y="58" font-size="14" font-family="monospace" fill="#334155">Generated 2026-03-08T15:11:33</text>
<circle cx="30" cy="878" r="5" fill="#0b7285"/>
<text x="40" y="883" font-size="13" font-family="monospace" fill="#0f172a">GPU 0</text>
<circle cx="170" cy="878" r="5" fill="#d9480f"/>
<text x="180" y="883" font-size="13" font-family="monospace" fill="#0f172a">GPU 1</text>
<rect x="70" y="70" width="1180" height="220" fill="#ffffff" stroke="#cbd5e1"/>
<text x="70" y="60" font-size="16" font-family="monospace" fill="#0f172a">GPU Util (%)</text>
<line x1="70" y1="290.00" x2="1250" y2="290.00" stroke="#e2e8f0"/>
<text x="62" y="294.00" text-anchor="end" font-size="11" font-family="monospace" fill="#475569">0.0</text>
<line x1="70" y1="246.00" x2="1250" y2="246.00" stroke="#e2e8f0"/>
<text x="62" y="250.00" text-anchor="end" font-size="11" font-family="monospace" fill="#475569">20.0</text>
<line x1="70" y1="202.00" x2="1250" y2="202.00" stroke="#e2e8f0"/>
<text x="62" y="206.00" text-anchor="end" font-size="11" font-family="monospace" fill="#475569">40.0</text>
<line x1="70" y1="158.00" x2="1250" y2="158.00" stroke="#e2e8f0"/>
<text x="62" y="162.00" text-anchor="end" font-size="11" font-family="monospace" fill="#475569">60.0</text>
<line x1="70" y1="114.00" x2="1250" y2="114.00" stroke="#e2e8f0"/>
<text x="62" y="118.00" text-anchor="end" font-size="11" font-family="monospace" fill="#475569">80.0</text>
<line x1="70" y1="70.00" x2="1250" y2="70.00" stroke="#e2e8f0"/>
<text x="62" y="74.00" text-anchor="end" font-size="11" font-family="monospace" fill="#475569">100.0</text>
<path d="M 70.00 125.19 L 364.93 134.30 L 659.85 123.30 L 955.07 113.71 L 1250.00 119.46" fill="none" stroke="#0b7285" stroke-width="2.2"/>
<path d="M 70.00 141.19 L 364.93 137.27 L 659.85 150.66 L 955.07 163.65 L 1250.00 157.19" fill="none" stroke="#d9480f" stroke-width="2.2"/>
<text x="70" y="308" font-size="11" font-family="monospace" fill="#475569">15:11:28</text>
<text x="1250" y="308" text-anchor="end" font-size="11" font-family="monospace" fill="#475569">15:11:32</text>
<rect x="70" y="330" width="1180" height="220" fill="#ffffff" stroke="#cbd5e1"/>
<text x="70" y="320" font-size="16" font-family="monospace" fill="#0f172a">Temp (C)</text>
<line x1="70" y1="550.00" x2="1250" y2="550.00" stroke="#e2e8f0"/>
<text x="62" y="554.00" text-anchor="end" font-size="11" font-family="monospace" fill="#475569">65.5</text>
<line x1="70" y1="506.00" x2="1250" y2="506.00" stroke="#e2e8f0"/>
<text x="62" y="510.00" text-anchor="end" font-size="11" font-family="monospace" fill="#475569">67.9</text>
<line x1="70" y1="462.00" x2="1250" y2="462.00" stroke="#e2e8f0"/>
<text x="62" y="466.00" text-anchor="end" font-size="11" font-family="monospace" fill="#475569">70.2</text>
<line x1="70" y1="418.00" x2="1250" y2="418.00" stroke="#e2e8f0"/>
<text x="62" y="422.00" text-anchor="end" font-size="11" font-family="monospace" fill="#475569">72.6</text>
<line x1="70" y1="374.00" x2="1250" y2="374.00" stroke="#e2e8f0"/>
<text x="62" y="378.00" text-anchor="end" font-size="11" font-family="monospace" fill="#475569">75.0</text>
<line x1="70" y1="330.00" x2="1250" y2="330.00" stroke="#e2e8f0"/>
<text x="62" y="334.00" text-anchor="end" font-size="11" font-family="monospace" fill="#475569">77.3</text>
<path d="M 70.00 364.73 L 364.93 444.69 L 659.85 366.28 L 955.07 359.32 L 1250.00 348.55" fill="none" stroke="#0b7285" stroke-width="2.2"/>
<path d="M 70.00 410.58 L 364.93 450.89 L 659.85 461.79 L 955.07 531.45 L 1250.00 456.14" fill="none" stroke="#d9480f" stroke-width="2.2"/>
<text x="70" y="568" font-size="11" font-family="monospace" fill="#475569">15:11:28</text>
<text x="1250" y="568" text-anchor="end" font-size="11" font-family="monospace" fill="#475569">15:11:32</text>
<rect x="70" y="590" width="1180" height="220" fill="#ffffff" stroke="#cbd5e1"/>
<text x="70" y="580" font-size="16" font-family="monospace" fill="#0f172a">Power (W)</text>
<line x1="70" y1="810.00" x2="1250" y2="810.00" stroke="#e2e8f0"/>
<text x="62" y="814.00" text-anchor="end" font-size="11" font-family="monospace" fill="#475569">176.0</text>
<line x1="70" y1="766.00" x2="1250" y2="766.00" stroke="#e2e8f0"/>
<text x="62" y="770.00" text-anchor="end" font-size="11" font-family="monospace" fill="#475569">189.9</text>
<line x1="70" y1="722.00" x2="1250" y2="722.00" stroke="#e2e8f0"/>
<text x="62" y="726.00" text-anchor="end" font-size="11" font-family="monospace" fill="#475569">203.9</text>
<line x1="70" y1="678.00" x2="1250" y2="678.00" stroke="#e2e8f0"/>
<text x="62" y="682.00" text-anchor="end" font-size="11" font-family="monospace" fill="#475569">217.8</text>
<line x1="70" y1="634.00" x2="1250" y2="634.00" stroke="#e2e8f0"/>
<text x="62" y="638.00" text-anchor="end" font-size="11" font-family="monospace" fill="#475569">231.8</text>
<line x1="70" y1="590.00" x2="1250" y2="590.00" stroke="#e2e8f0"/>
<text x="62" y="594.00" text-anchor="end" font-size="11" font-family="monospace" fill="#475569">245.7</text>
<path d="M 70.00 657.67 L 364.93 691.88 L 659.85 613.15 L 955.07 631.32 L 1250.00 608.33" fill="none" stroke="#0b7285" stroke-width="2.2"/>
<path d="M 70.00 721.71 L 364.93 662.11 L 659.85 716.68 L 955.07 791.67 L 1250.00 737.80" fill="none" stroke="#d9480f" stroke-width="2.2"/>
<text x="70" y="828" font-size="11" font-family="monospace" fill="#475569">15:11:28</text>
<text x="1250" y="828" text-anchor="end" font-size="11" font-family="monospace" fill="#475569">15:11:32</text>
</svg>